#!OML:ASF I:\golf\golf\golf 2\Subject 1\2002-09-07\Subject1.ASF
:FULLY-SPECIFIED
:DEGREES
253
root -0.261009 16.3019 -4.92231 38.197 14.0653 0.535079
lowerback 38.8216 6.47695 4.74094
upperback 15.3572 10.0566 8.85448
thorax -2.65421 4.60239 3.37109
lowerneck -19.0708 -8.30221 -3.94305
upperneck 13.688 -9.07121 -6.19437
head 7.20429 -5.11962 -2.45035
rclavicle -1.27222e-014 2.98177e-014
rhumerus 49.3903 -6.95478 -61.5085
rradius 23.9496
rwrist -7.23893
rhand -37.0752 20.2115
rfingers 7.12502
rthumb -10.1472 -9.52382
lclavicle -1.27222e-014 2.98177e-014
lhumerus -19.6538 -55.3372 86.1826
lradius 82.5352
lwrist -15.7352
lhand -50.1976 20.0499
lfingers 7.12502
lthumb -22.7788 48.7251
rfemur -81.5907 -18.0166 33.8716
rtibia 62.1628
rfoot -14.5922 -8.64951
rtoes -2.14341
lfemur -81.1014 5.64649 -21.8179
ltibia 47.1984
lfoot -3.72649 -18.3062
ltoes -3.91115
254
root -0.223688 16.2722 -4.8868 38.7638 14.0993 0.679359
lowerback 38.6579 6.53259 4.83845
upperback 15.5758 10.1247 8.93874
thorax -2.50471 4.64362 3.34256
lowerneck -18.838 -8.4286 -3.85885
upperneck 13.1985 -9.2916 -6.30697
head 6.99037 -5.22393 -2.49309
rclavicle 4.13472e-014 1.90833e-014
rhumerus 49.8828 -7.30531 -60.7242
rradius 23.9339
rwrist -7.77263
rhand -37.6174 20.5887
rfingers 7.12502
rthumb -10.6703 -9.12035
lclavicle 4.13472e-014 1.90833e-014
lhumerus -19.6137 -55.3825 86.0195
lradius 82.7676
lwrist -16.3473
lhand -50.3379 20.6011
lfingers 7.12502
lthumb -22.9133 49.2596
rfemur -82.3499 -18.1733 33.8977
rtibia 62.6265
rfoot -14.8973 -8.55065
rtoes -2.23937
lfemur -81.924 5.599 -22.3318
ltibia 47.7642
lfoot -3.61646 -18.6018
ltoes -1.78778
255
root -0.186366 16.238 -4.85612 39.4384 14.1622 0.760199
lowerback 38.454 6.5888 5.05952
upperback 15.6557 10.2372 8.97211
thorax -2.32632 4.70781 3.25117
lowerneck -18.5664 -8.56468 -3.78493
upperneck 12.739 -9.53625 -6.34092
head 6.78425 -5.33305 -2.50982
rclavicle -5.08889e-014 -1.37161e-014
rhumerus 50.4572 -8.00779 -60.3641
rradius 23.8379
rwrist -7.81546
rhand -38.3813 21.1954
rfingers 7.12502
rthumb -11.407 -8.47427
lclavicle -5.08889e-014 -1.37161e-014
lhumerus -19.5668 -55.6213 85.8472
lradius 83.1382
lwrist -17.0069
lhand -50.2976 21.5582
lfingers 7.12502
lthumb -22.8747 50.2215
rfemur -83.237 -18.2377 34.0171
rtibia 63.0199
rfoot -15.0314 -8.52553
rtoes -2.44738
lfemur -82.9 5.5617 -22.7978
ltibia 48.2997
lfoot -3.40346 -18.936
ltoes 0.298226
256
root -0.146778 16.1849 -4.83316 40.3365 14.5226 1.10884
lowerback 38.0784 6.50816 5.44984
upperback 15.7141 10.2427 9.05139
thorax -2.09253 4.73325 3.17302
lowerneck -18.3835 -8.74131 -3.6585
upperneck 12.2695 -9.83667 -6.43505
head 6.58292 -5.47352 -2.56219
rclavicle -7.31528e-014 -3.97569e-016
rhumerus 51.0351 -8.62676 -59.2716
rradius 23.7502
rwrist -8.55584
rhand -39.148 21.5825
rfingers 7.12502
rthumb -12.1464 -8.04485
lclavicle -7.31528e-014 -3.97569e-016
lhumerus -19.2943 -55.975 85.6929
lradius 83.4401
lwrist -17.6499
lhand -50.4376 21.9202
lfingers 7.12502
lthumb -23.009 50.5668
rfemur -84.4767 -18.6055 34.1267
rtibia 63.4472
rfoot -15.0727 -8.53293
rtoes -2.59729
lfemur -84.0773 5.05595 -23.2629
ltibia 48.7954
lfoot -3.38459 -19.3618
ltoes 0.16746
257
root -0.126025 16.1977 -4.78644 40.2422 14.0852 0.787699
lowerback 38.775 6.89011 5.23791
upperback 15.9015 10.6391 9.12386
thorax -2.17075 4.88973 3.18052
lowerneck -18.3331 -8.82815 -3.62635
upperneck 11.8669 -9.98193 -6.50641
head 6.43513 -5.54438 -2.58604
rclavicle 9.54166e-015 6.91771e-014
rhumerus 51.5969 -9.30261 -59.403
rradius 23.7025
rwrist -8.06484
rhand -39.6427 21.9638
rfingers 7.12502
rthumb -12.6233 -7.63481
lclavicle 9.54166e-015 6.91771e-014
lhumerus -19.1847 -55.9269 85.5307
lradius 83.6999
lwrist -18.0631
lhand -50.8819 21.7316
lfingers 7.12502
lthumb -23.4353 50.3245
rfemur -84.2071 -18.2385 34.0982
rtibia 63.6624
rfoot -15.4105 -8.46523
rtoes -2.85045
lfemur -84.1037 5.75276 -23.5648
ltibia 49.2386
lfoot -3.79825 -19.7276
ltoes -0.0502967
258
root -0.100008 16.1924 -4.74606 40.3401 14.1002 0.889079
lowerback 39.5257 6.93162 5.34682
upperback 15.8645 10.7697 9.13704
thorax -2.29231 4.93207 3.11791
lowerneck -18.1695 -8.94153 -3.59197
upperneck 11.4697 -10.1769 -6.5342
head 6.27192 -5.6337 -2.59527
rclavicle -4.77083e-014 4.8901e-014
rhumerus 52.2321 -9.98867 -59.4634
rradius 23.498
rwrist -7.59114
rhand -40.1397 22.5111
rfingers 7.12502
rthumb -13.1024 -7.05726
lclavicle -4.77083e-014 4.8901e-014
lhumerus -19.1627 -55.9253 85.4222
lradius 84.0815
lwrist -18.3937
lhand -51.1347 21.7321
lfingers 7.12502
lthumb -23.6778 50.2938
rfemur -84.2937 -18.4827 34.1161
rtibia 63.9297
rfoot -15.5317 -8.55813
rtoes -4.63067
lfemur -84.245 5.7708 -23.9291
ltibia 49.6209
lfoot -4.0642 -19.9188
ltoes 0.256566
259
root -0.0708401 16.1751 -4.7082 40.6602 14.1962 1.18573
lowerback 39.8016 6.91404 5.41747
upperback 15.9491 10.784 9.1804
thorax -2.28024 4.93565 3.11281
lowerneck -17.8283 -9.06675 -3.63894
upperneck 10.9665 -10.4104 -6.37778
head 6.05949 -5.72648 -2.52473
rclavicle -2.22639e-014 -3.49861e-014
rhumerus 52.8348 -10.6434 -59.5287
rradius 23.3477
rwrist -7.19999
rhand -40.7836 23.0797
rfingers 7.12502
rthumb -13.7231 -6.44781
lclavicle -2.22639e-014 -3.49861e-014
lhumerus -19.1176 -55.968 85.3464
lradius 84.4026
lwrist -18.9856
lhand -51.2176 21.786
lfingers 7.12502
lthumb -23.7573 50.3374
rfemur -84.6407 -18.829 33.9919
rtibia 64.1607
rfoot -15.5534 -8.65701
rtoes -6.0078
lfemur -84.5788 5.59096 -24.4566
ltibia 49.9581
lfoot -4.20715 -20.1681
ltoes 0.652551
260
root -0.0435722 16.1568 -4.67335 41.0741 14.4225 1.52958
lowerback 40.0201 6.79818 5.60365
upperback 15.9547 10.7267 9.19027
thorax -2.30735 4.91186 3.04102
lowerneck -17.551 -9.17089 -3.73527
upperneck 10.6295 -10.5956 -6.16145
head 5.91911 -5.79587 -2.43353
rclavicle -6.36111e-015 -6.87795e-014
rhumerus 53.2657 -11.1988 -59.589
rradius 23.3306
rwrist -6.85253
rhand -41.4495 23.3953
rfingers 7.12502
rthumb -14.3647 -6.08769
lclavicle -6.36111e-015 -6.87795e-014
lhumerus -19.1681 -55.9831 85.3168
lradius 84.6708
lwrist -19.3846
lhand -51.1814 21.6237
lfingers 7.12502
lthumb -23.7226 50.1796
rfemur -85.1021 -19.1966 33.7917
rtibia 64.475
rfoot -15.7965 -8.49749
rtoes -4.71544
lfemur -84.9672 5.22078 -24.8477
ltibia 50.2567
lfoot -4.18232 -20.2991
ltoes 1.49157
261
root -0.0174903 16.1359 -4.64181 41.5897 14.6015 1.80667
lowerback 40.1113 6.75546 5.77038
upperback 15.9283 10.7423 9.20544
thorax -2.33824 4.92201 2.96361
lowerneck -17.4223 -9.2796 -3.73492
upperneck 10.515 -10.7682 -6.09137
head 5.86178 -5.8711 -2.41701
rclavicle -1.27222e-014 -4.37326e-015
rhumerus 53.6264 -11.7951 -59.6248
rradius 23.2774
rwrist -6.5163
rhand -42.0557 23.9116
rfingers 7.12502
rthumb -14.9488 -5.5289
lclavicle -1.27222e-014 -4.37326e-015
lhumerus -19.2909 -56.0393 85.417
lradius 84.9888
lwrist -19.4139
lhand -51.1768 21.9731
lfingers 7.12502
lthumb -23.7182 50.5296
rfemur -85.7409 -19.4931 33.7404
rtibia 64.8415
rfoot -16.0813 -8.26701
rtoes -3.48651
lfemur -85.5117 4.91754 -25.2332
ltibia 50.5761
lfoot -4.12937 -20.4289
ltoes 2.41565
262
root 0.00905196 16.1115 -4.61397 42.2186 14.7764 2.04808
lowerback 39.9498 6.7315 5.89001
upperback 15.9617 10.7422 9.24421
thorax -2.239 4.92946 2.96124
lowerneck -17.3419 -9.35596 -3.66577
upperneck 10.3209 -10.9066 -6.09319
head 5.77961 -5.93331 -2.42861
rclavicle -1.90833e-014 3.57812e-015
rhumerus 54.0933 -12.3852 -59.6475
rradius 23.2435
rwrist -6.30792
rhand -42.3685 24.5709
rfingers 7.12502
rthumb -15.2501 -4.84699
lclavicle -1.90833e-014 3.57812e-015
lhumerus -19.3074 -56.0758 85.4365
lradius 85.3341
lwrist -19.4862
lhand -51.6788 23.8129
lfingers 7.12502
lthumb -24.1995 52.3061
rfemur -86.5744 -19.7449 33.8344
rtibia 65.2743
rfoot -16.3012 -8.21772
rtoes -3.63665
lfemur -86.2566 4.65682 -25.6701
ltibia 50.9573
lfoot -4.11013 -20.6684
ltoes 3.29234
263
root 0.0386274 16.0685 -4.59244 43.2477 15.0984 2.3112
lowerback 39.2103 6.60138 6.11042
upperback 15.9769 10.6088 9.241
thorax -1.94975 4.8945 2.95335
lowerneck -17.1706 -9.40392 -3.6167
upperneck 9.95506 -11.0254 -6.03153
head 5.63314 -5.97967 -2.40393
rclavicle -1.145e-013 5.64548e-014
rhumerus 54.5913 -12.9103 -59.7938
rradius 23.2803
rwrist -6.11118
rhand -42.4747 25.0467
rfingers 7.12502
rthumb -15.3524 -4.36335
lclavicle -1.145e-013 5.64548e-014
lhumerus -19.362 -55.9872 85.3336
lradius 85.6785
lwrist -19.5997
lhand -51.6041 22.8027
lfingers 7.12502
lthumb -24.1279 51.3054
rfemur -87.9978 -19.9948 34.1718
rtibia 65.836
rfoot -16.4979 -8.23547
rtoes -3.92049
lfemur -87.5421 4.17312 -26.0085
ltibia 51.4582
lfoot -4.04784 -20.8363
ltoes 4.03256
